<?xml version="1.0" encoding="utf-8"?>
<!-- Generator: Adobe Illustrator 21.0.0, SVG Export Plug-In . SVG Version: 6.00 Build 0)  -->
<svg version="1.1" id="Layer_1" xmlns="http://www.w3.org/2000/svg" xmlns:xlink="http://www.w3.org/1999/xlink" x="0px" y="0px"
	 viewBox="0 0 32 32" style="enable-background:new 0 0 32 32;" xml:space="preserve">
<style type="text/css">
	.st0{fill:#FFFFFF;}
	.st1{fill:#2459A7;}
	.st2{fill:#D81F2B;}
</style>
<circle class="st0" cx="16" cy="16" r="16"/>
<g>
	<path class="st1" d="M3.3,6.3C2,7.9,1.1,9.8,0.5,11.8h8.3L3.3,6.3z"/>
	<path class="st1" d="M31.5,11.8c-0.5-2-1.5-3.9-2.8-5.6l-5.6,5.6H31.5z"/>
	<path class="st1" d="M0.5,20.2c0.5,2,1.5,3.9,2.8,5.6l5.6-5.6H0.5L0.5,20.2z"/>
	<path class="st1" d="M25.7,3.3c-1.6-1.2-3.5-2.2-5.6-2.8v8.3L25.7,3.3z"/>
	<path class="st1" d="M6.3,28.7c1.6,1.2,3.5,2.2,5.6,2.8v-8.3L6.3,28.7z"/>
	<path class="st1" d="M11.8,0.5C9.8,1.1,7.9,2,6.3,3.3l5.6,5.6V0.5z"/>
	<path class="st1" d="M20.2,31.5c2-0.5,3.9-1.5,5.6-2.8l-5.6-5.6V31.5L20.2,31.5z"/>
	<path class="st1" d="M23.1,20.2l5.6,5.6c1.2-1.6,2.2-3.5,2.8-5.6H23.1z"/>
</g>
<g>
	<path class="st2" d="M31.9,13.9H18.1l0,0V0.1C17.4,0,16.7,0,16,0s-1.4,0-2.1,0.1v13.8l0,0H0.1C0,14.6,0,15.3,0,16s0,1.4,0.1,2.1
		h13.8l0,0v13.8C14.6,32,15.3,32,16,32s1.4,0,2.1-0.1V18.1l0,0h13.8C32,17.4,32,16.7,32,16S32,14.6,31.9,13.9z"/>
	<path class="st2" d="M20.2,20.2L20.2,20.2l7.1,7.1c0.3-0.3,0.6-0.7,0.9-1l-6.1-6.1H20.2L20.2,20.2L20.2,20.2z"/>
	<path class="st2" d="M11.8,20.2L11.8,20.2l-7.2,7.2c0.3,0.3,0.7,0.6,1,0.9l6.1-6.1V20.2L11.8,20.2z"/>
	<path class="st2" d="M11.8,11.8L11.8,11.8L4.7,4.7C4.4,5,4,5.3,3.7,5.7l6.1,6.1H11.8L11.8,11.8z"/>
	<path class="st2" d="M20.2,11.8L20.2,11.8l7.1-7.1c-0.3-0.3-0.7-0.6-1-0.9l-6.1,6.1V11.8z"/>
</g>
</svg>
